
@startuml
skinparam classAttributeIconSize 0
skinparam CircledCharacterFontSize 0
skinparam CircledCharacterRadius 0

class SuperTracker
class Parser
class TrackerException
interface Command

Parser <... SuperTracker
Command <.. SuperTracker
TrackerException <.. SuperTracker
TrackerException <.. Parser

interface Command <<interface>> {
    execute():void
    isQuit():boolean
}

class TrackerException {
    #errorMessage:String
    +getErrorMessage():String
    +TrackerException(errorMessage:String)
}

class Parser {
    {static}+parseCommand(input:String):Command
}

@enduml

@startuml
hide footbox
actor User as User
participant "SuperTracker" as SuperTracker <<class>> #f5e3a9
participant "Parser" as Parser <<class>> #cbf7f4

User -> SuperTracker : userInput
SuperTracker -> Parser : parseCommand(userInput)
activate Parser #cbf7f4

alt Valid command word
    Parser -> Parser : getPatternMatcher(regex, userInput, paramFlags)
    activate Parser #a9dff5
    Parser --> Parser : commandToExecute
    deactivate Parser
    Parser --> SuperTracker : commandToExecute
else Invalid command word
    Parser --> SuperTracker : InvalidCommand
    deactivate Parser
end

SuperTracker --> User : Output

@enduml